<?xml version="1.0" ?><svg fill="none" width="40px" height="31px" viewBox="0 0 24 24" xmlns="http://www.w3.org/2000/svg"><g id="Sller and Customer"><path clip-rule="evenodd" d="M3 13.75C2.30964 13.75 1.75 14.3096 1.75 15V16C1.75 16.4142 1.41421 16.75 1 16.75C0.585786 16.75 0.25 16.4142 0.25 16V15C0.25 13.4812 1.48122 12.25 3 12.25H5C6.51878 12.25 7.75 13.4812 7.75 15V16C7.75 16.4142 7.41421 16.75 7 16.75C6.58579 16.75 6.25 16.4142 6.25 16V15C6.25 14.3096 5.69036 13.75 5 13.75H3Z" fill="black" fill-rule="evenodd" id="Vector 68 (Stroke)"/><path clip-rule="evenodd" d="M19 13.75C18.3096 13.75 17.75 14.3096 17.75 15V16C17.75 16.4142 17.4142 16.75 17 16.75C16.5858 16.75 16.25 16.4142 16.25 16V15C16.25 13.4812 17.4812 12.25 19 12.25H21C22.5188 12.25 23.75 13.4812 23.75 15V16C23.75 16.4142 23.4142 16.75 23 16.75C22.5858 16.75 22.25 16.4142 22.25 16V15C22.25 14.3096 21.6904 13.75 21 13.75H19Z" fill="black" fill-rule="evenodd" id="Vector 69 (Stroke)"/><path clip-rule="evenodd" d="M4 7.75C3.30964 7.75 2.75 8.30964 2.75 9C2.75 9.69036 3.30964 10.25 4 10.25C4.69036 10.25 5.25 9.69036 5.25 9C5.25 8.30964 4.69036 7.75 4 7.75ZM1.25 9C1.25 7.48122 2.48122 6.25 4 6.25C5.51878 6.25 6.75 7.48122 6.75 9C6.75 10.5188 5.51878 11.75 4 11.75C2.48122 11.75 1.25 10.5188 1.25 9Z" fill="black" fill-rule="evenodd" id="Ellipse 19 (Stroke)"/><path clip-rule="evenodd" d="M20 7.75C19.3096 7.75 18.75 8.30964 18.75 9C18.75 9.69036 19.3096 10.25 20 10.25C20.6904 10.25 21.25 9.69036 21.25 9C21.25 8.30964 20.6904 7.75 20 7.75ZM17.25 9C17.25 7.48122 18.4812 6.25 20 6.25C21.5188 6.25 22.75 7.48122 22.75 9C22.75 10.5188 21.5188 11.75 20 11.75C18.4812 11.75 17.25 10.5188 17.25 9Z" fill="black" fill-rule="evenodd" id="Ellipse 20 (Stroke)"/><path clip-rule="evenodd" d="M8.25 13C8.25 12.5858 8.58579 12.25 9 12.25H15C15.4142 12.25 15.75 12.5858 15.75 13C15.75 13.4142 15.4142 13.75 15 13.75H9C8.58579 13.75 8.25 13.4142 8.25 13Z" fill="black" fill-rule="evenodd" id="Vector 70 (Stroke)"/></g></svg>